<?xml version="1.0" encoding="UTF-8" standalone="no"?><!DOCTYPE svg PUBLIC "-//W3C//DTD SVG 1.1//EN" "http://www.w3.org/Graphics/SVG/1.1/DTD/svg11.dtd"><svg width="100%" height="100%" viewBox="0 0 2088 2088" version="1.1" xmlns="http://www.w3.org/2000/svg" xmlns:xlink="http://www.w3.org/1999/xlink" xml:space="preserve" xmlns:serif="http://www.serif.com/" style="fill-rule:evenodd;clip-rule:evenodd;stroke-linejoin:round;stroke-miterlimit:2;"><rect id="Icon" x="3.214" y="0.118" width="2083.33" height="2083.33" style="fill:#ffcf2d;"/><path d="M343.274,1441.03l-84.656,-0l0,-328.793l-108.414,-0l-0,-70.456l301.485,-0l-0,70.456l-108.415,-0l0,328.793Z" style="fill:#430098;fill-rule:nonzero;"/><path d="M824.121,1041.79l-0,258.338c-0,29.493 -6.6,55.345 -19.799,77.555c-13.199,22.211 -32.269,39.234 -57.211,51.067c-24.942,11.834 -54.435,17.751 -88.479,17.751c-51.34,-0 -91.21,-13.154 -119.611,-39.461c-28.401,-26.307 -42.601,-62.309 -42.601,-108.005l-0,-257.245l84.383,-0l-0,244.41c-0,30.768 6.19,53.343 18.569,67.725c12.38,14.383 32.862,21.574 61.444,21.574c27.673,-0 47.745,-7.237 60.215,-21.71c12.471,-14.474 18.707,-37.185 18.707,-68.135l-0,-243.864l84.383,-0Z" style="fill:#430098;fill-rule:nonzero;"/><path d="M1239.15,1237.59c0,65.723 -18.706,116.061 -56.119,151.016c-37.412,34.955 -91.437,52.432 -162.075,52.432l-113.057,-0l-0,-399.249l125.346,-0c65.176,-0 115.787,17.204 151.834,51.613c36.048,34.408 54.071,82.471 54.071,144.188Zm-87.933,2.185c-0,-85.748 -37.868,-128.623 -113.603,-128.623l-45.059,0l0,259.976l36.32,0c81.561,0 122.342,-43.784 122.342,-131.353Z" style="fill:#430098;fill-rule:nonzero;"/><path d="M1476.96,1441.03l-96.126,-313.228l-2.458,0c3.459,63.72 5.189,106.23 5.189,127.531l-0,185.697l-75.644,-0l-0,-399.249l115.241,-0l94.487,305.308l1.639,0l100.222,-305.308l115.241,-0l0,399.249l-78.921,-0l-0,-188.974c-0,-8.921 0.136,-19.207 0.41,-30.859c0.273,-11.651 1.501,-42.601 3.686,-92.848l-2.458,-0l-102.952,312.681l-77.556,-0Z" style="fill:#430098;fill-rule:nonzero;"/><rect x="150.204" y="1615.64" width="894.677" height="74.999" style="fill:#430098;"/></svg>