<?xml version="1.0" encoding="UTF-8" standalone="no"?>
<!DOCTYPE svg PUBLIC "-//W3C//DTD SVG 1.1//EN" "http://www.w3.org/Graphics/SVG/1.1/DTD/svg11.dtd">
<svg width="100%" height="100%" viewBox="0 0 1632 457" version="1.1" xmlns="http://www.w3.org/2000/svg" xmlns:xlink="http://www.w3.org/1999/xlink" xml:space="preserve" xmlns:serif="http://www.serif.com/" style="fill-rule:evenodd;clip-rule:evenodd;stroke-linejoin:round;stroke-miterlimit:2;">
    <g transform="matrix(1,0,0,1,-6048,1406)">
        <g transform="matrix(0.71367,0,0,0.714874,6557.75,-1203.83)">
            <g transform="matrix(21.2794,0,0,21.2435,-83757.8,-11303.1)">
                <text x="3902.41px" y="527.895px" style="font-family:'OpenSans-Bold', 'Open Sans', sans-serif;font-weight:700;font-size:12px;fill:rgb(67,0,152);">T<tspan x="3909.06px 3916.65px 3923.44px 3926.26px 3935.03px 3938.39px 3943.3px 3946.66px 3958.14px 3965.09px 3970px " y="527.895px 527.895px 527.895px 527.895px 527.895px 527.895px 527.895px 527.895px 527.895px 527.895px 527.895px ">he Ultimate</tspan></text>
                <text x="3902.41px" y="539.895px" style="font-family:'OpenSans-Bold', 'Open Sans', sans-serif;font-weight:700;font-size:12px;fill:rgb(67,0,152);">D<tspan x="3911px 3918.12px 3929.61px 3936.56px 3939.92px 3947.51px 3950.32px 3961.34px 3968.29px 3975.87px 3982.82px 3989.3px 3996.09px 4001.24px " y="539.895px 539.895px 539.895px 539.895px 539.895px 539.895px 539.895px 539.895px 539.895px 539.895px 539.895px 539.895px 539.895px 539.895px ">omain Manager™</tspan></text>
            </g>
            <g transform="matrix(1.12976,0,0,1.12786,-4778.68,-670.998)">
                <rect x="3615.59" y="871.063" width="387.122" height="37.555" style="fill:rgb(67,0,152);"/>
            </g>
        </g>
    </g>
</svg>
