<?xml version="1.0" encoding="UTF-8" standalone="no"?>
<!DOCTYPE svg PUBLIC "-//W3C//DTD SVG 1.1//EN" "http://www.w3.org/Graphics/SVG/1.1/DTD/svg11.dtd">
<svg width="100%" height="100%" viewBox="0 0 1632 457" version="1.1" xmlns="http://www.w3.org/2000/svg" xmlns:xlink="http://www.w3.org/1999/xlink" xml:space="preserve" xmlns:serif="http://www.serif.com/" style="fill-rule:evenodd;clip-rule:evenodd;stroke-linejoin:round;stroke-miterlimit:2;">
    <g transform="matrix(1,0,0,1,-6048,1406)">
        <g transform="matrix(0.71367,0,0,0.714874,6557.75,-1203.83)">
            <g transform="matrix(21.2794,0,0,21.2435,-83757.8,-11303.1)">
                <g transform="matrix(12,0,0,12,3902.41,527.895)">
                    <path d="M0.365,-0L0.214,-0L0.214,-0.588L0.02,-0.588L0.02,-0.714L0.559,-0.714L0.559,-0.588L0.365,-0.588L0.365,-0Z" style="fill:rgb(67,0,152);fill-rule:nonzero;"/>
                </g>
                <g transform="matrix(12,0,0,12,3909.06,527.895)">
                    <path d="M0.582,-0L0.433,-0L0.433,-0.319C0.433,-0.398 0.404,-0.437 0.345,-0.437C0.304,-0.437 0.273,-0.423 0.255,-0.395C0.236,-0.366 0.227,-0.32 0.227,-0.257L0.227,-0L0.078,-0L0.078,-0.76L0.227,-0.76L0.227,-0.605C0.227,-0.593 0.226,-0.565 0.224,-0.52L0.22,-0.476L0.228,-0.476C0.261,-0.529 0.314,-0.556 0.386,-0.556C0.45,-0.556 0.499,-0.539 0.532,-0.504C0.565,-0.47 0.582,-0.42 0.582,-0.356L0.582,-0Z" style="fill:rgb(67,0,152);fill-rule:nonzero;"/>
                </g>
                <g transform="matrix(12,0,0,12,3916.65,527.895)">
                    <path d="M0.304,-0.45C0.273,-0.45 0.248,-0.44 0.23,-0.42C0.212,-0.4 0.202,-0.372 0.199,-0.335L0.408,-0.335C0.408,-0.372 0.398,-0.4 0.379,-0.42C0.361,-0.44 0.336,-0.45 0.304,-0.45ZM0.325,0.01C0.237,0.01 0.169,-0.014 0.119,-0.063C0.07,-0.111 0.045,-0.18 0.045,-0.269C0.045,-0.361 0.068,-0.431 0.114,-0.481C0.159,-0.531 0.222,-0.556 0.303,-0.556C0.38,-0.556 0.44,-0.534 0.483,-0.49C0.526,-0.446 0.548,-0.386 0.548,-0.308L0.548,-0.236L0.196,-0.236C0.197,-0.194 0.21,-0.16 0.233,-0.137C0.257,-0.113 0.29,-0.101 0.332,-0.101C0.365,-0.101 0.396,-0.104 0.425,-0.111C0.455,-0.118 0.485,-0.129 0.517,-0.144L0.517,-0.029C0.491,-0.016 0.463,-0.006 0.434,0C0.404,0.007 0.368,0.01 0.325,0.01Z" style="fill:rgb(67,0,152);fill-rule:nonzero;"/>
                </g>
                <g transform="matrix(12,0,0,12,3926.26,527.895)">
                    <path d="M0.671,-0.714L0.671,-0.252C0.671,-0.199 0.659,-0.153 0.635,-0.113C0.612,-0.074 0.578,-0.043 0.533,-0.022C0.489,-0.001 0.436,0.01 0.375,0.01C0.283,0.01 0.212,-0.014 0.161,-0.061C0.11,-0.108 0.085,-0.172 0.085,-0.254L0.085,-0.714L0.236,-0.714L0.236,-0.277C0.236,-0.222 0.247,-0.181 0.269,-0.156C0.291,-0.13 0.328,-0.117 0.379,-0.117C0.428,-0.117 0.464,-0.13 0.487,-0.156C0.509,-0.182 0.52,-0.222 0.52,-0.278L0.52,-0.714L0.671,-0.714Z" style="fill:rgb(67,0,152);fill-rule:nonzero;"/>
                </g>
                <g transform="matrix(12,0,0,12,3935.03,527.895)">
                    <rect x="0.078" y="-0.76" width="0.149" height="0.76" style="fill:rgb(67,0,152);fill-rule:nonzero;"/>
                </g>
                <g transform="matrix(12,0,0,12,3938.39,527.895)">
                    <path d="M0.308,-0.109C0.334,-0.109 0.365,-0.115 0.402,-0.126L0.402,-0.015C0.365,0.001 0.319,0.01 0.265,0.01C0.206,0.01 0.162,-0.005 0.135,-0.035C0.108,-0.066 0.094,-0.111 0.094,-0.171L0.094,-0.434L0.023,-0.434L0.023,-0.497L0.105,-0.547L0.148,-0.662L0.243,-0.662L0.243,-0.546L0.396,-0.546L0.396,-0.434L0.243,-0.434L0.243,-0.171C0.243,-0.15 0.249,-0.134 0.261,-0.124C0.273,-0.114 0.289,-0.109 0.308,-0.109Z" style="fill:rgb(67,0,152);fill-rule:nonzero;"/>
                </g>
                <g transform="matrix(12,0,0,12,3943.3,527.895)">
                    <path d="M0.072,-0.687C0.072,-0.736 0.099,-0.76 0.153,-0.76C0.207,-0.76 0.234,-0.736 0.234,-0.687C0.234,-0.664 0.227,-0.646 0.214,-0.633C0.2,-0.62 0.18,-0.614 0.153,-0.614C0.099,-0.614 0.072,-0.638 0.072,-0.687ZM0.227,-0L0.078,-0L0.078,-0.546L0.227,-0.546L0.227,-0Z" style="fill:rgb(67,0,152);fill-rule:nonzero;"/>
                </g>
                <g transform="matrix(12,0,0,12,3946.66,527.895)">
                    <path d="M0.567,-0L0.418,-0L0.418,-0.319C0.418,-0.358 0.411,-0.388 0.398,-0.407C0.385,-0.427 0.364,-0.437 0.336,-0.437C0.298,-0.437 0.27,-0.423 0.253,-0.395C0.236,-0.367 0.227,-0.321 0.227,-0.257L0.227,-0L0.078,-0L0.078,-0.546L0.192,-0.546L0.212,-0.476L0.22,-0.476C0.235,-0.501 0.256,-0.521 0.284,-0.535C0.311,-0.549 0.343,-0.556 0.379,-0.556C0.461,-0.556 0.516,-0.529 0.545,-0.476L0.558,-0.476C0.573,-0.501 0.594,-0.521 0.623,-0.535C0.651,-0.549 0.683,-0.556 0.719,-0.556C0.781,-0.556 0.828,-0.54 0.86,-0.509C0.891,-0.477 0.907,-0.426 0.907,-0.356L0.907,-0L0.758,-0L0.758,-0.319C0.758,-0.358 0.751,-0.388 0.738,-0.407C0.725,-0.427 0.704,-0.437 0.676,-0.437C0.639,-0.437 0.612,-0.424 0.594,-0.398C0.576,-0.372 0.567,-0.331 0.567,-0.274L0.567,-0Z" style="fill:rgb(67,0,152);fill-rule:nonzero;"/>
                </g>
                <g transform="matrix(12,0,0,12,3958.14,527.895)">
                    <path d="M0.425,-0L0.396,-0.074L0.392,-0.074C0.367,-0.043 0.341,-0.021 0.315,-0.009C0.288,0.004 0.254,0.01 0.211,0.01C0.159,0.01 0.117,-0.005 0.087,-0.035C0.057,-0.065 0.042,-0.108 0.042,-0.163C0.042,-0.221 0.062,-0.264 0.103,-0.291C0.143,-0.319 0.204,-0.334 0.286,-0.337L0.381,-0.34L0.381,-0.364C0.381,-0.419 0.353,-0.447 0.296,-0.447C0.252,-0.447 0.201,-0.434 0.142,-0.407L0.093,-0.508C0.156,-0.541 0.225,-0.557 0.302,-0.557C0.375,-0.557 0.431,-0.541 0.47,-0.509C0.509,-0.477 0.529,-0.429 0.529,-0.364L0.529,-0L0.425,-0ZM0.381,-0.253L0.323,-0.251C0.28,-0.25 0.248,-0.242 0.227,-0.228C0.205,-0.213 0.195,-0.191 0.195,-0.162C0.195,-0.12 0.219,-0.099 0.267,-0.099C0.302,-0.099 0.329,-0.109 0.35,-0.129C0.371,-0.149 0.381,-0.175 0.381,-0.208L0.381,-0.253Z" style="fill:rgb(67,0,152);fill-rule:nonzero;"/>
                </g>
                <g transform="matrix(12,0,0,12,3965.09,527.895)">
                    <path d="M0.308,-0.109C0.334,-0.109 0.365,-0.115 0.402,-0.126L0.402,-0.015C0.365,0.001 0.319,0.01 0.265,0.01C0.206,0.01 0.162,-0.005 0.135,-0.035C0.108,-0.066 0.094,-0.111 0.094,-0.171L0.094,-0.434L0.023,-0.434L0.023,-0.497L0.105,-0.547L0.148,-0.662L0.243,-0.662L0.243,-0.546L0.396,-0.546L0.396,-0.434L0.243,-0.434L0.243,-0.171C0.243,-0.15 0.249,-0.134 0.261,-0.124C0.273,-0.114 0.289,-0.109 0.308,-0.109Z" style="fill:rgb(67,0,152);fill-rule:nonzero;"/>
                </g>
                <g transform="matrix(12,0,0,12,3970,527.895)">
                    <path d="M0.304,-0.45C0.273,-0.45 0.248,-0.44 0.23,-0.42C0.212,-0.4 0.202,-0.372 0.199,-0.335L0.408,-0.335C0.408,-0.372 0.398,-0.4 0.379,-0.42C0.361,-0.44 0.336,-0.45 0.304,-0.45ZM0.325,0.01C0.237,0.01 0.169,-0.014 0.119,-0.063C0.07,-0.111 0.045,-0.18 0.045,-0.269C0.045,-0.361 0.068,-0.431 0.114,-0.481C0.159,-0.531 0.222,-0.556 0.303,-0.556C0.38,-0.556 0.44,-0.534 0.483,-0.49C0.526,-0.446 0.548,-0.386 0.548,-0.308L0.548,-0.236L0.196,-0.236C0.197,-0.194 0.21,-0.16 0.233,-0.137C0.257,-0.113 0.29,-0.101 0.332,-0.101C0.365,-0.101 0.396,-0.104 0.425,-0.111C0.455,-0.118 0.485,-0.129 0.517,-0.144L0.517,-0.029C0.491,-0.016 0.463,-0.006 0.434,0C0.404,0.007 0.368,0.01 0.325,0.01Z" style="fill:rgb(67,0,152);fill-rule:nonzero;"/>
                </g>
                <g transform="matrix(12,0,0,12,3902.41,539.895)">
                    <path d="M0.682,-0.364C0.682,-0.246 0.649,-0.156 0.582,-0.094C0.515,-0.031 0.418,-0 0.292,-0L0.09,-0L0.09,-0.714L0.314,-0.714C0.431,-0.714 0.521,-0.683 0.585,-0.622C0.65,-0.56 0.682,-0.474 0.682,-0.364ZM0.525,-0.36C0.525,-0.513 0.457,-0.59 0.322,-0.59L0.241,-0.59L0.241,-0.125L0.306,-0.125C0.452,-0.125 0.525,-0.203 0.525,-0.36Z" style="fill:rgb(67,0,152);fill-rule:nonzero;"/>
                </g>
                <g transform="matrix(12,0,0,12,3911,539.895)">
                    <path d="M0.197,-0.274C0.197,-0.22 0.206,-0.179 0.223,-0.151C0.241,-0.124 0.27,-0.11 0.31,-0.11C0.35,-0.11 0.378,-0.124 0.396,-0.151C0.413,-0.179 0.422,-0.22 0.422,-0.274C0.422,-0.328 0.413,-0.368 0.396,-0.396C0.378,-0.423 0.349,-0.436 0.309,-0.436C0.269,-0.436 0.241,-0.423 0.223,-0.396C0.206,-0.369 0.197,-0.328 0.197,-0.274ZM0.574,-0.274C0.574,-0.185 0.551,-0.116 0.504,-0.065C0.457,-0.015 0.392,0.01 0.308,0.01C0.256,0.01 0.209,-0.002 0.169,-0.025C0.129,-0.048 0.099,-0.081 0.077,-0.124C0.056,-0.167 0.045,-0.217 0.045,-0.274C0.045,-0.363 0.068,-0.432 0.115,-0.482C0.161,-0.531 0.227,-0.556 0.311,-0.556C0.363,-0.556 0.41,-0.545 0.45,-0.522C0.49,-0.499 0.521,-0.466 0.542,-0.424C0.563,-0.381 0.574,-0.331 0.574,-0.274Z" style="fill:rgb(67,0,152);fill-rule:nonzero;"/>
                </g>
                <g transform="matrix(12,0,0,12,3918.13,539.895)">
                    <path d="M0.567,-0L0.418,-0L0.418,-0.319C0.418,-0.358 0.411,-0.388 0.398,-0.407C0.385,-0.427 0.364,-0.437 0.336,-0.437C0.298,-0.437 0.27,-0.423 0.253,-0.395C0.236,-0.367 0.227,-0.321 0.227,-0.257L0.227,-0L0.078,-0L0.078,-0.546L0.192,-0.546L0.212,-0.476L0.22,-0.476C0.235,-0.501 0.256,-0.521 0.284,-0.535C0.311,-0.549 0.343,-0.556 0.379,-0.556C0.461,-0.556 0.516,-0.529 0.545,-0.476L0.558,-0.476C0.573,-0.501 0.594,-0.521 0.623,-0.535C0.651,-0.549 0.683,-0.556 0.719,-0.556C0.781,-0.556 0.828,-0.54 0.86,-0.509C0.891,-0.477 0.907,-0.426 0.907,-0.356L0.907,-0L0.758,-0L0.758,-0.319C0.758,-0.358 0.751,-0.388 0.738,-0.407C0.725,-0.427 0.704,-0.437 0.676,-0.437C0.639,-0.437 0.612,-0.424 0.594,-0.398C0.576,-0.372 0.567,-0.331 0.567,-0.274L0.567,-0Z" style="fill:rgb(67,0,152);fill-rule:nonzero;"/>
                </g>
                <g transform="matrix(12,0,0,12,3929.61,539.895)">
                    <path d="M0.425,-0L0.396,-0.074L0.392,-0.074C0.367,-0.043 0.341,-0.021 0.315,-0.009C0.288,0.004 0.254,0.01 0.211,0.01C0.159,0.01 0.117,-0.005 0.087,-0.035C0.057,-0.065 0.042,-0.108 0.042,-0.163C0.042,-0.221 0.062,-0.264 0.103,-0.291C0.143,-0.319 0.204,-0.334 0.286,-0.337L0.381,-0.34L0.381,-0.364C0.381,-0.419 0.353,-0.447 0.296,-0.447C0.252,-0.447 0.201,-0.434 0.142,-0.407L0.093,-0.508C0.156,-0.541 0.225,-0.557 0.302,-0.557C0.375,-0.557 0.431,-0.541 0.47,-0.509C0.509,-0.477 0.529,-0.429 0.529,-0.364L0.529,-0L0.425,-0ZM0.381,-0.253L0.323,-0.251C0.28,-0.25 0.248,-0.242 0.227,-0.228C0.205,-0.213 0.195,-0.191 0.195,-0.162C0.195,-0.12 0.219,-0.099 0.267,-0.099C0.302,-0.099 0.329,-0.109 0.35,-0.129C0.371,-0.149 0.381,-0.175 0.381,-0.208L0.381,-0.253Z" style="fill:rgb(67,0,152);fill-rule:nonzero;"/>
                </g>
                <g transform="matrix(12,0,0,12,3936.56,539.895)">
                    <path d="M0.072,-0.687C0.072,-0.736 0.099,-0.76 0.153,-0.76C0.207,-0.76 0.234,-0.736 0.234,-0.687C0.234,-0.664 0.227,-0.646 0.214,-0.633C0.2,-0.62 0.18,-0.614 0.153,-0.614C0.099,-0.614 0.072,-0.638 0.072,-0.687ZM0.227,-0L0.078,-0L0.078,-0.546L0.227,-0.546L0.227,-0Z" style="fill:rgb(67,0,152);fill-rule:nonzero;"/>
                </g>
                <g transform="matrix(12,0,0,12,3939.92,539.895)">
                    <path d="M0.582,-0L0.433,-0L0.433,-0.319C0.433,-0.358 0.426,-0.388 0.412,-0.407C0.398,-0.427 0.376,-0.437 0.345,-0.437C0.304,-0.437 0.273,-0.423 0.255,-0.395C0.236,-0.367 0.227,-0.321 0.227,-0.257L0.227,-0L0.078,-0L0.078,-0.546L0.192,-0.546L0.212,-0.476L0.22,-0.476C0.237,-0.502 0.26,-0.522 0.289,-0.536C0.318,-0.549 0.351,-0.556 0.388,-0.556C0.452,-0.556 0.5,-0.539 0.533,-0.505C0.566,-0.47 0.582,-0.421 0.582,-0.356L0.582,-0Z" style="fill:rgb(67,0,152);fill-rule:nonzero;"/>
                </g>
                <g transform="matrix(12,0,0,12,3950.32,539.895)">
                    <path d="M0.392,-0L0.22,-0.56L0.216,-0.56C0.222,-0.446 0.225,-0.37 0.225,-0.332L0.225,-0L0.09,-0L0.09,-0.714L0.296,-0.714L0.465,-0.168L0.468,-0.168L0.647,-0.714L0.853,-0.714L0.853,-0L0.712,-0L0.712,-0.338C0.712,-0.354 0.712,-0.372 0.713,-0.393C0.713,-0.414 0.715,-0.469 0.719,-0.559L0.715,-0.559L0.531,-0L0.392,-0Z" style="fill:rgb(67,0,152);fill-rule:nonzero;"/>
                </g>
                <g transform="matrix(12,0,0,12,3961.34,539.895)">
                    <path d="M0.425,-0L0.396,-0.074L0.392,-0.074C0.367,-0.043 0.341,-0.021 0.315,-0.009C0.288,0.004 0.254,0.01 0.211,0.01C0.159,0.01 0.117,-0.005 0.087,-0.035C0.057,-0.065 0.042,-0.108 0.042,-0.163C0.042,-0.221 0.062,-0.264 0.103,-0.291C0.143,-0.319 0.204,-0.334 0.286,-0.337L0.381,-0.34L0.381,-0.364C0.381,-0.419 0.353,-0.447 0.296,-0.447C0.252,-0.447 0.201,-0.434 0.142,-0.407L0.093,-0.508C0.156,-0.541 0.225,-0.557 0.302,-0.557C0.375,-0.557 0.431,-0.541 0.47,-0.509C0.509,-0.477 0.529,-0.429 0.529,-0.364L0.529,-0L0.425,-0ZM0.381,-0.253L0.323,-0.251C0.28,-0.25 0.248,-0.242 0.227,-0.228C0.205,-0.213 0.195,-0.191 0.195,-0.162C0.195,-0.12 0.219,-0.099 0.267,-0.099C0.302,-0.099 0.329,-0.109 0.35,-0.129C0.371,-0.149 0.381,-0.175 0.381,-0.208L0.381,-0.253Z" style="fill:rgb(67,0,152);fill-rule:nonzero;"/>
                </g>
                <g transform="matrix(12,0,0,12,3968.29,539.895)">
                    <path d="M0.582,-0L0.433,-0L0.433,-0.319C0.433,-0.358 0.426,-0.388 0.412,-0.407C0.398,-0.427 0.376,-0.437 0.345,-0.437C0.304,-0.437 0.273,-0.423 0.255,-0.395C0.236,-0.367 0.227,-0.321 0.227,-0.257L0.227,-0L0.078,-0L0.078,-0.546L0.192,-0.546L0.212,-0.476L0.22,-0.476C0.237,-0.502 0.26,-0.522 0.289,-0.536C0.318,-0.549 0.351,-0.556 0.388,-0.556C0.452,-0.556 0.5,-0.539 0.533,-0.505C0.566,-0.47 0.582,-0.421 0.582,-0.356L0.582,-0Z" style="fill:rgb(67,0,152);fill-rule:nonzero;"/>
                </g>
                <g transform="matrix(12,0,0,12,3975.87,539.895)">
                    <path d="M0.425,-0L0.396,-0.074L0.392,-0.074C0.367,-0.043 0.341,-0.021 0.315,-0.009C0.288,0.004 0.254,0.01 0.211,0.01C0.159,0.01 0.117,-0.005 0.087,-0.035C0.057,-0.065 0.042,-0.108 0.042,-0.163C0.042,-0.221 0.062,-0.264 0.103,-0.291C0.143,-0.319 0.204,-0.334 0.286,-0.337L0.381,-0.34L0.381,-0.364C0.381,-0.419 0.353,-0.447 0.296,-0.447C0.252,-0.447 0.201,-0.434 0.142,-0.407L0.093,-0.508C0.156,-0.541 0.225,-0.557 0.302,-0.557C0.375,-0.557 0.431,-0.541 0.47,-0.509C0.509,-0.477 0.529,-0.429 0.529,-0.364L0.529,-0L0.425,-0ZM0.381,-0.253L0.323,-0.251C0.28,-0.25 0.248,-0.242 0.227,-0.228C0.205,-0.213 0.195,-0.191 0.195,-0.162C0.195,-0.12 0.219,-0.099 0.267,-0.099C0.302,-0.099 0.329,-0.109 0.35,-0.129C0.371,-0.149 0.381,-0.175 0.381,-0.208L0.381,-0.253Z" style="fill:rgb(67,0,152);fill-rule:nonzero;"/>
                </g>
                <g transform="matrix(12,0,0,12,3982.82,539.895)">
                    <path d="M0.553,-0.546L0.553,-0.47L0.468,-0.448C0.483,-0.424 0.491,-0.396 0.491,-0.366C0.491,-0.308 0.471,-0.262 0.43,-0.229C0.389,-0.197 0.332,-0.18 0.26,-0.18L0.233,-0.182L0.211,-0.184C0.196,-0.172 0.188,-0.159 0.188,-0.145C0.188,-0.124 0.215,-0.113 0.27,-0.113L0.363,-0.113C0.423,-0.113 0.468,-0.1 0.5,-0.074C0.531,-0.049 0.547,-0.011 0.547,0.039C0.547,0.103 0.52,0.152 0.467,0.188C0.414,0.223 0.337,0.24 0.238,0.24C0.162,0.24 0.103,0.227 0.063,0.2C0.023,0.174 0.003,0.137 0.003,0.089C0.003,0.056 0.013,0.028 0.034,0.006C0.054,-0.016 0.084,-0.032 0.124,-0.041C0.109,-0.048 0.095,-0.058 0.084,-0.073C0.073,-0.088 0.067,-0.104 0.067,-0.12C0.067,-0.141 0.073,-0.158 0.085,-0.172C0.097,-0.186 0.114,-0.2 0.137,-0.213C0.109,-0.225 0.086,-0.245 0.069,-0.272C0.052,-0.3 0.044,-0.332 0.044,-0.369C0.044,-0.429 0.063,-0.475 0.102,-0.507C0.141,-0.54 0.196,-0.556 0.268,-0.556C0.283,-0.556 0.302,-0.555 0.323,-0.552C0.344,-0.549 0.357,-0.547 0.363,-0.546L0.553,-0.546ZM0.132,0.077C0.132,0.098 0.142,0.114 0.161,0.125C0.181,0.137 0.209,0.143 0.244,0.143C0.298,0.143 0.339,0.136 0.37,0.121C0.4,0.106 0.415,0.086 0.415,0.061C0.415,0.041 0.406,0.026 0.388,0.019C0.37,0.011 0.343,0.007 0.305,0.007L0.228,0.007C0.201,0.007 0.178,0.013 0.159,0.026C0.141,0.039 0.132,0.056 0.132,0.077ZM0.186,-0.367C0.186,-0.338 0.193,-0.314 0.206,-0.297C0.22,-0.28 0.24,-0.271 0.268,-0.271C0.296,-0.271 0.317,-0.28 0.33,-0.297C0.343,-0.314 0.349,-0.338 0.349,-0.367C0.349,-0.433 0.322,-0.466 0.268,-0.466C0.213,-0.466 0.186,-0.433 0.186,-0.367Z" style="fill:rgb(67,0,152);fill-rule:nonzero;"/>
                </g>
                <g transform="matrix(12,0,0,12,3989.3,539.895)">
                    <path d="M0.304,-0.45C0.273,-0.45 0.248,-0.44 0.23,-0.42C0.212,-0.4 0.202,-0.372 0.199,-0.335L0.408,-0.335C0.408,-0.372 0.398,-0.4 0.379,-0.42C0.361,-0.44 0.336,-0.45 0.304,-0.45ZM0.325,0.01C0.237,0.01 0.169,-0.014 0.119,-0.063C0.07,-0.111 0.045,-0.18 0.045,-0.269C0.045,-0.361 0.068,-0.431 0.114,-0.481C0.159,-0.531 0.222,-0.556 0.303,-0.556C0.38,-0.556 0.44,-0.534 0.483,-0.49C0.526,-0.446 0.548,-0.386 0.548,-0.308L0.548,-0.236L0.196,-0.236C0.197,-0.194 0.21,-0.16 0.233,-0.137C0.257,-0.113 0.29,-0.101 0.332,-0.101C0.365,-0.101 0.396,-0.104 0.425,-0.111C0.455,-0.118 0.485,-0.129 0.517,-0.144L0.517,-0.029C0.491,-0.016 0.463,-0.006 0.434,0C0.404,0.007 0.368,0.01 0.325,0.01Z" style="fill:rgb(67,0,152);fill-rule:nonzero;"/>
                </g>
                <g transform="matrix(12,0,0,12,3996.09,539.895)">
                    <path d="M0.383,-0.556C0.403,-0.556 0.42,-0.555 0.433,-0.552L0.422,-0.412C0.41,-0.415 0.395,-0.417 0.378,-0.417C0.33,-0.417 0.293,-0.405 0.267,-0.38C0.24,-0.356 0.227,-0.322 0.227,-0.278L0.227,-0L0.078,-0L0.078,-0.546L0.191,-0.546L0.213,-0.454L0.22,-0.454C0.237,-0.485 0.26,-0.509 0.289,-0.528C0.318,-0.547 0.349,-0.556 0.383,-0.556Z" style="fill:rgb(67,0,152);fill-rule:nonzero;"/>
                </g>
                <g transform="matrix(12,0,0,12,4001.24,539.895)">
                    <path d="M0.186,-0.362L0.104,-0.362L0.104,-0.641L0.008,-0.641L0.008,-0.714L0.283,-0.714L0.283,-0.641L0.186,-0.641L0.186,-0.362ZM0.467,-0.362L0.386,-0.62L0.383,-0.62L0.385,-0.566L0.385,-0.362L0.305,-0.362L0.305,-0.714L0.426,-0.714L0.504,-0.465L0.587,-0.714L0.704,-0.714L0.704,-0.362L0.622,-0.362L0.622,-0.561L0.624,-0.62L0.621,-0.62L0.536,-0.362L0.467,-0.362Z" style="fill:rgb(67,0,152);fill-rule:nonzero;"/>
                </g>
            </g>
            <g transform="matrix(1.12976,0,0,1.12786,-4778.68,-670.998)">
                <rect x="3615.59" y="871.063" width="387.122" height="37.555" style="fill:rgb(67,0,152);"/>
            </g>
        </g>
    </g>
</svg>
